#!OML:ASF E:\acrobat2\Project_11_07_03\Capture day 1\Session 1\Acrobat.ASF
:FULLY-SPECIFIED
:DEGREES
544
root 10.8516 6.03855 11.6792 -88.248 3.39906 179.59
lowerback -4.98268 -3.01987 4.62042
upperback -0.0626451 -4.33985 1.28428
thorax 2.4835 -2.1194 -1.55569
lowerneck 5.56124 -14.8096 -10.3286
upperneck -29.4122 -15.7307 29.3063
head -5.95518 -8.56815 12.3305
rclavicle -4.29375e-014 -9.93923e-017
rhumerus 30.6405 -32.574 -30.9848
rradius 120.605
rwrist -22.0278
rhand -19.8557 -43.4235
rfingers 7.12502
rthumb 6.47912 -73.3044
lclavicle -4.29375e-014 -9.93923e-017
lhumerus 16.6187 47.1164 2.7676
lradius 108.594
lwrist 32.7121
lhand -3.7688 -26.4808
lfingers 7.12502
lthumb 21.976 2.29087
rfemur 0.844135 16.3713 -8.75234
rtibia 1.59028e-015
rfoot 31.6963 -23.9929
rtoes 28.8387
lfemur -11.3875 -20.6481 3.60649
ltibia 19.198
lfoot 36.2962 12.178
ltoes 22.5495
545
root 10.8494 6.04107 11.6854 -88.3219 3.40547 179.586
lowerback -4.86029 -3.0286 4.62128
upperback -0.0460068 -4.3453 1.27841
thorax 2.4313 -2.12348 -1.55547
lowerneck 5.50231 -14.791 -10.4479
upperneck -29.343 -15.7023 29.457
head -5.89494 -8.55614 12.3877
rclavicle -7.95139e-015 -3.29858e-014
rhumerus 30.8116 -32.6418 -31.0095
rradius 120.421
rwrist -22.0653
rhand -19.8037 -43.3923
rfingers 7.12502
rthumb 6.52935 -73.2717
lclavicle -7.95139e-015 -3.29858e-014
lhumerus 16.7094 47.1567 2.70244
lradius 108.471
lwrist 32.7776
lhand -3.68544 -26.488
lfingers 7.12502
lthumb 22.056 2.27418
rfemur 0.875015 16.403 -8.72368
rtibia -1.51076e-014
rfoot 31.9039 -24.1724
rtoes 28.9417
lfemur -11.3669 -20.6701 3.58476
ltibia 19.2618
lfoot 36.343 12.0407
ltoes 21.7811
546
root 10.8468 6.04274 11.6906 -88.3947 3.39141 179.59
lowerback -4.7491 -3.03731 4.65078
upperback -0.0272739 -4.35306 1.27384
thorax 2.38541 -2.12819 -1.57062
lowerneck 5.44105 -14.7853 -10.5248
upperneck -29.2851 -15.6809 29.6276
head -5.83868 -8.55288 12.4462
rclavicle 1.59028e-015 -1.48095e-014
rhumerus 30.9685 -32.6867 -31.0726
rradius 120.26
rwrist -22.086
rhand -19.7324 -43.3495
rfingers 7.12502
rthumb 6.59812 -73.2267
lclavicle 1.59028e-015 -1.48095e-014
lhumerus 16.7811 47.1878 2.64101
lradius 108.367
lwrist 32.8232
lhand -3.59003 -26.5046
lfingers 7.12502
lthumb 22.1476 2.24681
rfemur 0.903221 16.4413 -8.67406
rtibia 1.59028e-015
rfoot 32.1348 -24.3029
rtoes 28.898
lfemur -11.3245 -20.6942 3.58099
ltibia 19.2974
lfoot 36.3854 11.9211
ltoes 20.9485
547
root 10.8439 6.04366 11.6946 -88.4575 3.3707 179.599
lowerback -4.65844 -3.04707 4.69178
upperback -0.00828439 -4.36391 1.26753
thorax 2.35011 -2.13398 -1.59532
lowerneck 5.36966 -14.7887 -10.539
upperneck -29.234 -15.667 29.759
head -5.79352 -8.55398 12.4809
rclavicle 1.90833e-014 -1.92573e-015
rhumerus 31.0968 -32.7113 -31.1682
rradius 120.133
rwrist -22.0932
rhand -19.6474 -43.3063
rfingers 7.12502
rthumb 6.68022 -73.1809
lclavicle 1.90833e-014 -1.92573e-015
lhumerus 16.8327 47.2122 2.58376
lradius 108.284
lwrist 32.8488
lhand -3.49588 -26.5316
lfingers 7.12502
lthumb 22.238 2.20899
rfemur 0.924429 16.4795 -8.61951
rtibia 0
rfoot 32.404 -24.3145
rtoes 28.5978
lfemur -11.2618 -20.7054 3.5831
ltibia 19.2897
lfoot 36.434 11.8324
ltoes 20.2968
548
root 10.8409 6.04384 11.6975 -88.5048 3.34886 179.61
lowerback -4.59608 -3.0574 4.73818
upperback 0.00977016 -4.37727 1.2583
thorax 2.32892 -2.14057 -1.62786
lowerneck 5.32342 -14.7815 -10.5242
upperneck -29.2123 -15.6434 29.7993
head -5.7797 -8.5443 12.4871
rclavicle -4.77083e-015 1.63376e-014
rhumerus 31.1892 -32.7251 -31.2763
rradius 120.039
rwrist -22.0964
rhand -19.568 -43.2703
rfingers 7.12502
rthumb 6.75687 -73.1425
lclavicle -4.77083e-015 1.63376e-014
lhumerus 16.8701 47.236 2.5261
lradius 108.217
lwrist 32.8667
lhand -3.41268 -26.5725
lfingers 7.12502
lthumb 22.3179 2.15857
rfemur 0.936445 16.5129 -8.56613
rtibia 1.63003e-014
rfoot 32.6922 -24.1936
rtoes 28.0088
lfemur -11.1784 -20.7028 3.58844
ltibia 19.2254
lfoot 36.5002 11.7644
ltoes 19.9235
549
root 10.8376 6.04323 11.6992 -88.5374 3.32823 179.627
lowerback -4.56365 -3.06711 4.79049
upperback 0.0285927 -4.39172 1.2446
thorax 2.32439 -2.14712 -1.67017
lowerneck 5.28113 -14.7692 -10.4862
upperneck -29.193 -15.6157 29.7919
head -5.77726 -8.53015 12.4746
rclavicle 3.81667e-014 -3.07247e-014
rhumerus 31.2566 -32.7418 -31.3813
rradius 119.965
rwrist -22.113
rhand -19.5097 -43.2423
rfingers 7.12502
rthumb 6.81315 -73.1127
lclavicle 3.81667e-014 -3.07247e-014
lhumerus 16.8987 47.2686 2.45231
lradius 108.154
lwrist 32.8915
lhand -3.35731 -26.6032
lfingers 7.12502
lthumb 22.371 2.1215
rfemur 0.939569 16.544 -8.5161
rtibia -2.74323e-014
rfoot 32.9886 -23.9262
rtoes 27.0781
lfemur -11.0706 -20.7037 3.59469
ltibia 19.1004
lfoot 36.5726 11.7398
ltoes 19.9839
550
root 10.8338 6.04163 11.6994 -88.5562 3.31951 179.65
lowerback -4.56069 -3.07517 4.84018
upperback 0.0482074 -4.40539 1.22394
thorax 2.33686 -2.15277 -1.72003
lowerneck 5.26401 -14.743 -10.4552
upperneck -29.1907 -15.5778 29.7219
head -5.79442 -8.50504 12.4472
rclavicle 2.70347e-014 -1.64867e-014
rhumerus 31.308 -32.7605 -31.4769
rradius 119.905
rwrist -22.1446
rhand -19.4847 -43.2138
rfingers 7.12502
rthumb 6.83725 -73.0834
lclavicle 2.70347e-014 -1.64867e-014
lhumerus 16.9229 47.3087 2.36023
lradius 108.092
lwrist 32.9212
lhand -3.34602 -26.5912
lfingers 7.12502
lthumb 22.3819 2.1322
rfemur 0.929487 16.5738 -8.48076
rtibia -6.75868e-015
rfoot 33.3407 -23.4395
rtoes 25.5999
lfemur -10.9397 -20.7288 3.58888
ltibia 18.9168
lfoot 36.616 11.7777
ltoes 20.3445
551
root 10.8294 6.03914 11.6981 -88.5654 3.33034 179.678
lowerback -4.57979 -3.08239 4.87785
upperback 0.0686016 -4.41844 1.19597
thorax 2.36282 -2.1578 -1.77215
lowerneck 5.28392 -14.6992 -10.4564
upperneck -29.2128 -15.5289 29.5826
head -5.83364 -8.46622 12.4087
rclavicle 0 4.17448e-015
rhumerus 31.352 -32.774 -31.5657
rradius 119.86
rwrist -22.1733
rhand -19.4936 -43.1739
rfingers 7.12502
rthumb 6.82868 -73.0438
lclavicle 0 4.17448e-015
lhumerus 16.938 47.3514 2.25424
lradius 108.036
lwrist 32.9503
lhand -3.3658 -26.5629
lfingers 7.12502
lthumb 22.3629 2.16284
rfemur 0.908147 16.6028 -8.46805
rtibia 1.35174e-014
rfoot 33.7245 -22.7848
rtoes 23.6621
lfemur -10.7867 -20.7856 3.56145
ltibia 18.6797
lfoot 36.6127 11.8684
ltoes 20.7497
552
root 10.8246 6.03614 11.6956 -88.5717 3.36293 179.706
lowerback -4.60635 -3.09087 4.89783
upperback 0.0882083 -4.43246 1.16208
thorax 2.3929 -2.16335 -1.82109
lowerneck 5.33299 -14.6418 -10.4978
upperneck -29.2452 -15.4721 29.4179
head -5.88183 -8.41879 12.3726
rclavicle -3.18055e-015 1.00635e-014
rhumerus 31.3955 -32.7805 -31.655
rradius 119.827
rwrist -22.1898
rhand -19.5158 -43.1262
rfingers 7.12502
rthumb 6.80726 -72.9967
lclavicle -3.18055e-015 1.00635e-014
lhumerus 16.9366 47.3915 2.13732
lradius 107.989
lwrist 32.9793
lhand -3.39594 -26.5361
lfingers 7.12502
lthumb 22.3339 2.19303
rfemur 0.883194 16.6304 -8.48046
rtibia 3.57812e-015
rfoot 34.0997 -22.0538
rtoes 21.5183
lfemur -10.6168 -20.8674 3.50838
ltibia 18.4048
lfoot 36.5791 11.9874
ltoes 21.0615
553
root 10.8197 6.03301 11.6914 -88.5766 3.41435 179.729
lowerback -4.63104 -3.10135 4.89998
upperback 0.104349 -4.44781 1.12573
thorax 2.41936 -2.16988 -1.86256
lowerneck 5.40193 -14.5792 -10.5707
upperneck -29.2842 -15.4151 29.2477
head -5.93281 -8.36898 12.3423
rclavicle 1.11319e-014 8.57259e-016
rhumerus 31.4424 -32.7851 -31.7431
rradius 119.804
rwrist -22.2001
rhand -19.5298 -43.0772
rfingers 7.12502
rthumb 6.7937 -72.9482
lclavicle 1.11319e-014 8.57259e-016
lhumerus 16.9195 47.4268 2.02101
lradius 107.954
lwrist 33.0085
lhand -3.44379 -26.4799
lfingers 7.12502
lthumb 22.288 2.25474
rfemur 0.854933 16.6517 -8.51725
rtibia 2.06736e-014
rfoot 34.4546 -21.3154
rtoes 19.3929
lfemur -10.4487 -20.961 3.43312
ltibia 18.1193
lfoot 36.5471 12.0774
ltoes 21.0917
